<svg id="Layer_1" data-name="Layer 1" xmlns="http://www.w3.org/2000/svg" viewBox="0 0 3351.68 365.79"><defs><style>.cls-1{fill:#fff;}.cls-2{fill:#dd0b18;}</style></defs><title>zenith-logo new</title><path class="cls-1" d="M1067,275.37v130H996.27V181.73h5.12c13.71,0,27.43.3,41.12-.07,16.7-.44,29,4.64,39,15.45,29.25,31.86,59.18,63.32,88.85,94.93,1.43,1.53,2.88,3,5.19,5.49V182h71.67V405.37c-13.72,0-27.2.27-40.66-.09-8.85-.24-15.18-4.5-20.48-9.87q-32.12-32.6-64.38-65.09-25.38-25.62-50.74-51.27C1070,278.09,1068.91,277.17,1067,275.37Z" transform="translate(-58.59 -40.08)"/><path class="cls-1" d="M1879.53,405.61h-75.28V316.15H1705v89.34h-75.61V181.94h75.22v85.55h99.3V182h75.59Z" transform="translate(-58.59 -40.08)"/><path class="cls-1" d="M2129.28,352V305.43h5.52q28.72,0,57.46,0c13.3,0,17.69-3.4,17.78-14q.18-22.75,0-45.53c-.09-10.6-4.49-14-17.83-14q-34.8,0-69.59,0c-1.53,0-3.07.11-5,.19V405.41h-75.83V181.93c1.71-.07,3.4-.19,5.1-.19q93.3,0,186.61.06a121.72,121.72,0,0,1,19.86,1.53c17.35,2.9,27,11.4,29.47,25.38a71,71,0,0,1,1.11,12.06q.14,46.17,0,92.33a62,62,0,0,1-1.31,13.3c-3.27,14.63-14.4,22.89-33.25,24.91a132.08,132.08,0,0,1-13.64.82q-51.14.11-102.27,0C2132.25,352.17,2131.05,352.08,2129.28,352Z" transform="translate(-58.59 -40.08)"/><path class="cls-1" d="M3406.86,181.73v47.69l-126.64.06c-10.1.43-14.75,3.87-15.29,11.92a176.35,176.35,0,0,0-.1,18c.26,7.47,4.74,10.92,14.21,10.94,29.18.06,58.35,0,87.52,0,3.17,0,6.35-.05,9.48.23,21.53,1.89,33.57,11.65,33.95,28.86.52,23.95.16,47.91,0,71.87a36.91,36.91,0,0,1-1.35,9.11c-4.34,16.75-17.3,24.61-42,25.2-12.65.3-25.31.11-38,.12H3191.47V356.14c2.1-.08,4.14-.21,6.18-.21h118.1c16.63,0,20.48-3.06,20.53-16.23,0-4.59,0-9.19,0-13.78-.13-9.3-4.19-12.62-15.93-12.65-27.06-.07-54.13,0-81.19-.07a140.08,140.08,0,0,1-19.91-1.05c-15.85-2.36-25.5-11-27.3-23.73a81.25,81.25,0,0,1-.75-11.66c.08-20.89-.62-41.82.68-62.66,1.37-21.93,14.93-31.53,42.85-32.23,12.65-.32,25.31-.12,38-.12h134.18Z" transform="translate(-58.59 -40.08)"/><path class="cls-1" d="M954.1,353.9v51.63c-1.9.07-3.6.18-5.3.18q-76.71,0-153.41,0a119.9,119.9,0,0,1-19.34-1.48c-17.51-2.92-27.07-11.27-29.51-25.31a73.66,73.66,0,0,1-1.13-12.47q-.1-72.7.05-145.4a64.92,64.92,0,0,1,2.11-16.13c2.93-11.29,11.87-18.46,26-21.17a100,100,0,0,1,18.22-1.85c53.07-.15,159.21-.11,159.21-.11l3,.12v50l-116.37.2c-7.47.81-11.75,3.79-12.06,9.74-.5,9.84-.13,19.71-.13,30.11H953.19v39.45H825.68c0,11.84-.34,23.07.18,34.28.18,4,4,6.79,9.22,7.55a66.85,66.85,0,0,0,9.39.67q51.66.08,103.33,0Z" transform="translate(-58.59 -40.08)"/><path class="cls-1" d="M2926.07,353.9v51.61c-1.74.07-3.27.2-4.8.2q-77.23,0-154.46-.06a115.68,115.68,0,0,1-18.82-1.47c-17.49-2.95-27-11.29-29.46-25.35a80.43,80.43,0,0,1-1.13-13.31q-.12-71.86,0-143.73a75.31,75.31,0,0,1,1.19-13.72c2.73-14.53,14-23.22,32.62-25.4a121.84,121.84,0,0,1,13.64-.88q78.81-.1,157.62,0h3.46v50.13H2816.86a69.47,69.47,0,0,0-7.37.21c-7.45.81-11.71,3.81-12,9.77-.51,9.84-.14,19.71-.14,30H2925v39.44H2797.9c-.48.9-1.29,20.83-.77,30.28.5,9.07,5.17,12.31,16.75,12.33Z" transform="translate(-58.59 -40.08)"/><path class="cls-1" d="M2700.2,405.51h-75c-1.29,0-60.75-79.42-61-79.74a3.91,3.91,0,0,0-5.78,0l0,0c-16.81,22-58.43,79.63-59.83,79.63h-70.93c-1.88,0-3.39-1.2-3.41-2.69-.09-6.08,35.05-53.34,49.23-71.58,10.79-13.87,21.47-27.77,32.42-41.56,2-2.47,2-4.15-.06-6.64-22.24-26.89-44.24-53.9-66.46-80.8-4.4-5.33-6.74-11-6.88-17.39,0-1.49,1.52-2.69,3.4-2.69h75.29a3.18,3.18,0,0,1,3.37,2.4,21.43,21.43,0,0,0,3.56,8.95v0c.39.61,185.22,202.91,185.48,209.31C2703.66,404.28,2702.09,405.51,2700.2,405.51Z" transform="translate(-58.59 -40.08)"/><path class="cls-1" d="M1536.42,405.57H1461.1V232h-64.67V182h203.94v49.65h-63.95Z" transform="translate(-58.59 -40.08)"/><path class="cls-1" d="M3161.63,351.47v54c-1.8.07-3.49.21-5.17.21q-69.84,0-139.67,0c-4.73,0-9.48-.31-14.17-.77-20.06-2-31.67-11.16-34.13-27a84.65,84.65,0,0,1-1-12.9q-.1-89.38,0-178.78V182h75.79v4.94q0,74.14,0,148.29c0,13.6,3.43,16.29,20.72,16.29h97.69Z" transform="translate(-58.59 -40.08)"/><path class="cls-1" d="M1290.87,181.91h75.36V405.39h-75.36Z" transform="translate(-58.59 -40.08)"/><path class="cls-1" d="M2396.42,405.53h-75.37V182.06h75.37Z" transform="translate(-58.59 -40.08)"/><path class="cls-2" d="M2624.61,301.19" transform="translate(-58.59 -40.08)"/><path class="cls-2" d="M2518.12,171.18l0,0h0S2518.12,171.17,2518.12,171.18Z" transform="translate(-58.59 -40.08)"/><path class="cls-2" d="M754.57,40.08s-6.89,47.76-11.2,70.82c-.87,4.67-5.5,8.81-8.85,12.81q-82,97.86-164,195.61c-2.17,2.59-4.13,5.35-7.41,9.61H714.43c-4.19,26.06-12.27,76.46-12.27,76.46l-309.11.48-16.72-1.61c-16.74-4.71-26.74-20.72-25.2-39.17a35.59,35.59,0,0,1,31.11-32.18c3.49-.45,7-.73,10.48-1.24a35.25,35.25,0,0,0,30.5-35.88c-.31-18-13.85-33.41-31.61-35-9.78-.86-19.68-.56-29.52-.57-49.95-.05-99.9.21-149.85-.28-8.49-.08-17.72-1.75-25.26-5.45-15.48-7.58-21.47-23.15-17.54-40.1,3.46-14.93,16.43-26,32.3-27.38,4.9-.42,9.84-.43,14.76-.44q135.6,0,271.21,0c11.37,0,22.52-.54,31.81-8.56,11.83-10.21,16.18-22.87,11.92-37.85-4.14-14.61-14.49-23.6-29.29-25.26-13.91-1.56-28.08-.68-42.13-1.14C443.44,113.25,429.76,103,425.2,88c-4.72-15.54.35-31.69,14.64-40.54,6.54-4,15.06-6.86,22.69-6.9Z" transform="translate(-58.59 -40.08)"/><path class="cls-2" d="M259.75,405.54c-7.38,0-14.8.52-22.12-.1-19-1.62-33.27-18-33-37.24C205,350.39,219.58,334,237.5,333a373.29,373.29,0,0,1,44.25,0c18.76,1.14,32.83,17.33,32.83,36.16,0,18.65-13.21,34.14-31.67,36.19-7.63.84-15.43.14-23.16.14Z" transform="translate(-58.59 -40.08)"/><path class="cls-2" d="M387.54,77.72a36.31,36.31,0,0,1-37.41,36.06c-19.94-.42-36.42-16.94-36.35-36.43s18-37.36,37.2-37C370.9,40.62,387.68,57.79,387.54,77.72Z" transform="translate(-58.59 -40.08)"/><path class="cls-2" d="M95.75,259.82C75.57,260,58.6,243.27,58.59,223.3s17-36.58,37.15-36.51,35.88,15.64,36.21,35.93A36.11,36.11,0,0,1,95.75,259.82Z" transform="translate(-58.59 -40.08)"/><rect class="cls-2" x="2519.62" y="142.86" width="69.83" height="67.14"/><rect class="cls-2" x="2589.46" y="56.03" width="90.32" height="86.83"/><rect class="cls-2" x="2679.78" y="0.15" width="58.13" height="55.89"/><rect class="cls-2" x="2589.46" y="210" width="38.76" height="37.26"/></svg>